<svg xmlns="http://www.w3.org/2000/svg" viewBox="0 0 1416.29 229.83" style=""><defs><style>.cls-1{fill:none;stroke:#333;stroke-miterlimit:10;stroke-width:10px}</style></defs><g id="Layer_2" data-name="Layer 2"><g id="Layer_1-2" data-name="Layer 1"><path class="cls-1 OcoRJehk_0" d="M48.33 216.41a126 126 0 01-41.39-25l26-31.12a127.8 127.8 0 0029.4 18.84A80 80 0 0095.72 186q14.57 0 23-5.71t8.42-15.41v-.58a16.4 16.4 0 00-8.14-15 53.11 53.11 0 00-13.13-6.14q-8.43-2.85-21.56-6.28-16-4-28.69-8.57a75.6 75.6 0 01-21.69-11.7 48.24 48.24 0 01-13.86-17.4q-4.86-10.27-4.85-25.69V73a57.52 57.52 0 0120.41-45 68 68 0 0122.84-12.58A92.07 92.07 0 0187.73 11a124.78 124.78 0 0141.82 6.7 118.85 118.85 0 0135 19.56L141.4 70.38A126 126 0 00114.14 55a72.83 72.83 0 00-27.27-5.42q-13.7 0-20.84 5.71T58.9 69v.57a19.12 19.12 0 002 9.14 19.2 19.2 0 007.1 6.8 71.72 71.72 0 0014 6.14q8.85 3 22.55 6.42a198.13 198.13 0 0128.27 9.14 76.44 76.44 0 0120.7 12.42 49 49 0 0112.84 17.12q4.43 9.85 4.43 23.27v.57q0 15.42-5.57 27.27a55.5 55.5 0 01-15.7 20 71.38 71.38 0 01-24.12 12.42 103.81 103.81 0 01-30.55 4.28 136.24 136.24 0 01-46.52-8.15zM256.46 222a34.64 34.64 0 01-14.56-7.7 36.42 36.42 0 01-9.42-14.56q-3.42-9.14-3.43-22.84v-76.8h-19.12V63h19.12V21.84h43.4V63h38.26v37.11h-38.26v69.66q0 16.28 15.42 16.27a47 47 0 0022.26-5.42v34.83a74.17 74.17 0 01-15.41 6.42 69.28 69.28 0 01-19.42 2.43 72.7 72.7 0 01-18.84-2.3zM374.23 209q-14.13-15.84-14.13-43.53V63h43.11v88.78q0 16.56 7.42 25.13t21.13 8.56q13.69 0 21.69-8.56t8-25.13V63h43.39v158.69h-43.39v-22.84a119.21 119.21 0 01-8.57 9.85 54.23 54.23 0 01-10.28 8.3 52 52 0 01-28.26 7.85q-25.98-.02-40.11-15.85zM600.91 219.4a69.09 69.09 0 01-23.12-15.84 78 78 0 01-16.27-25.69q-6.15-15.28-6.14-35.26V142q0-19.71 6-35a76.48 76.48 0 0116.12-25.63 69.3 69.3 0 0123.13-15.85 70.17 70.17 0 0127.26-5.42q18.27 0 30.12 7.14a78.44 78.44 0 0120.13 17.13V5h43.39v216.69h-43.39v-23.41a72.78 72.78 0 01-20.27 19q-12 7.58-30 7.57a69.31 69.31 0 01-26.96-5.45zm53.11-35a40.66 40.66 0 0012.84-9.13 41.74 41.74 0 008.71-14.14 52 52 0 003.14-18.55V142a52.06 52.06 0 00-3.14-18.56 41.6 41.6 0 00-8.71-14.13 40.69 40.69 0 00-12.86-9.1 36.77 36.77 0 00-15.28-3.28 37.85 37.85 0 00-15.41 3.14 39.15 39.15 0 00-12.71 9 41.48 41.48 0 00-8.71 14.28 53.2 53.2 0 00-3.14 18.7v.57a52 52 0 003.14 18.55 41.89 41.89 0 008.71 14.14 41.16 41.16 0 0012.71 9.13 36.36 36.36 0 0015.41 3.28 36.77 36.77 0 0015.28-3.29zM827.74 13.85v167.87h104.78v40H784.06V13.85zM1096.39 12.42l89.36 209.27h-46l-19.41-47.39h-89.93L1011 221.69h-44.79l89.64-209.27zM1075.55 65l-29.41 70.52h58.53zM1331.07 13.85q18 0 31.69 4.71a60.66 60.66 0 0122.84 13.56q14 14.28 14 35.4v.57a51 51 0 01-2.28 15.85 48.68 48.68 0 01-6 12.42 44.67 44.67 0 01-8.86 9.56 82.56 82.56 0 01-10.56 7.28q18 6.57 28.69 18.27t10.7 32.53v.57q0 14.28-5.57 25a49.38 49.38 0 01-15.7 17.84 72.48 72.48 0 01-24.55 10.71 132.4 132.4 0 01-31.83 3.57h-98.21V13.85zm16.84 44.39q-8-5.85-23.12-5.85H1278v46.25h44q15.71 0 24.84-5.57t9.13-17.84v-.57q-.07-10.56-8.06-16.42zm11.09 83.22q-8.57-6.27-27.12-6.28h-54v48h55.68q16 0 25-5.86t9-17.84v-.57q.05-11.16-8.56-17.45z"></path></g></g><style data-made-with="vivus-instant">.OcoRJehk_0{stroke-dasharray:6463 6465;stroke-dashoffset:6464;animation:OcoRJehk_draw_0 53900ms linear 0ms infinite,OcoRJehk_fade 53900ms linear 0ms infinite;}@keyframes OcoRJehk_draw{100%{stroke-dashoffset:0;}}@keyframes OcoRJehk_fade{0%{stroke-opacity:1;}99.25788497217069%{stroke-opacity:1;}100%{stroke-opacity:0;}}@keyframes OcoRJehk_draw_0{0.927643784786642%{stroke-dashoffset: 6464}62.77056277056276%{ stroke-dashoffset: 0;}100%{ stroke-dashoffset: 0;}}</style></svg>